<svg width="18" height="22" viewBox="0 0 18 22" fill="none" xmlns="http://www.w3.org/2000/svg">
<path d="M0.896307 22V0.181818H9.6321C11.2372 0.181818 12.576 0.419744 13.6484 0.895596C14.7209 1.37145 15.527 2.03196 16.0668 2.87713C16.6065 3.7152 16.8764 4.68111 16.8764 5.77486C16.8764 6.62713 16.706 7.37642 16.3651 8.02273C16.0241 8.66193 15.5554 9.1875 14.9588 9.59943C14.3693 10.0043 13.6946 10.2919 12.9347 10.4624V10.6754C13.7656 10.7109 14.5433 10.9453 15.2678 11.3786C15.9993 11.8118 16.5923 12.419 17.0469 13.2003C17.5014 13.9744 17.7287 14.8977 17.7287 15.9702C17.7287 17.1278 17.4411 18.1612 16.8658 19.0703C16.2976 19.9723 15.456 20.6861 14.3409 21.2116C13.2259 21.7372 11.8516 22 10.218 22H0.896307ZM5.50923 18.2287H9.26989C10.5554 18.2287 11.4929 17.9837 12.0824 17.4936C12.6719 16.9964 12.9666 16.3359 12.9666 15.5121C12.9666 14.9084 12.821 14.3757 12.5298 13.9141C12.2386 13.4524 11.8232 13.0902 11.2834 12.8274C10.7507 12.5646 10.1151 12.4332 9.37642 12.4332H5.50923V18.2287ZM5.50923 9.31179H8.92898C9.56108 9.31179 10.1222 9.2017 10.6122 8.98153C11.1094 8.75426 11.5 8.43466 11.7841 8.02273C12.0753 7.6108 12.2209 7.11719 12.2209 6.5419C12.2209 5.75355 11.9403 5.1179 11.3793 4.63494C10.8253 4.15199 10.0369 3.91051 9.01421 3.91051H5.50923V9.31179Z" fill="white"/>
</svg>
