<svg width="14" height="18" viewBox="0 0 14 18" fill="none" xmlns="http://www.w3.org/2000/svg">
<path d="M0.517045 18V0.545454H7.50568C8.78977 0.545454 9.8608 0.735795 10.7188 1.11648C11.5767 1.49716 12.2216 2.02557 12.6534 2.7017C13.0852 3.37216 13.3011 4.14489 13.3011 5.01989C13.3011 5.7017 13.1648 6.30114 12.892 6.81818C12.6193 7.32955 12.2443 7.75 11.767 8.07955C11.2955 8.40341 10.7557 8.63352 10.1477 8.76989V8.94034C10.8125 8.96875 11.4347 9.15625 12.0142 9.50284C12.5994 9.84943 13.0739 10.3352 13.4375 10.9602C13.8011 11.5795 13.983 12.3182 13.983 13.1761C13.983 14.1023 13.7528 14.929 13.2926 15.6562C12.8381 16.3778 12.1648 16.9489 11.2727 17.3693C10.3807 17.7898 9.28125 18 7.97443 18H0.517045ZM4.20739 14.983H7.21591C8.24432 14.983 8.99432 14.7869 9.46591 14.3949C9.9375 13.9972 10.1733 13.4687 10.1733 12.8097C10.1733 12.3267 10.0568 11.9006 9.82386 11.5312C9.59091 11.1619 9.25852 10.8722 8.8267 10.6619C8.40057 10.4517 7.89205 10.3466 7.30114 10.3466H4.20739V14.983ZM4.20739 7.84943H6.94318C7.44886 7.84943 7.89773 7.76136 8.28977 7.58523C8.6875 7.40341 9 7.14773 9.22727 6.81818C9.46023 6.48864 9.5767 6.09375 9.5767 5.63352C9.5767 5.00284 9.35227 4.49432 8.90341 4.10795C8.46023 3.72159 7.82955 3.52841 7.01136 3.52841H4.20739V7.84943Z" fill="white"/>
</svg>
