<svg width="116" height="19" viewBox="0 0 116 19" fill="none" xmlns="http://www.w3.org/2000/svg">
<path d="M0.517045 18V0.545454H7.50568C8.78977 0.545454 9.8608 0.735795 10.7188 1.11648C11.5767 1.49716 12.2216 2.02557 12.6534 2.7017C13.0852 3.37216 13.3011 4.14489 13.3011 5.01989C13.3011 5.7017 13.1648 6.30114 12.892 6.81818C12.6193 7.32955 12.2443 7.75 11.767 8.07955C11.2955 8.40341 10.7557 8.63352 10.1477 8.76989V8.94034C10.8125 8.96875 11.4347 9.15625 12.0142 9.50284C12.5994 9.84943 13.0739 10.3352 13.4375 10.9602C13.8011 11.5795 13.983 12.3182 13.983 13.1761C13.983 14.1023 13.7528 14.929 13.2926 15.6562C12.8381 16.3778 12.1648 16.9489 11.2727 17.3693C10.3807 17.7898 9.28125 18 7.97443 18H0.517045ZM4.20739 14.983H7.21591C8.24432 14.983 8.99432 14.7869 9.46591 14.3949C9.9375 13.9972 10.1733 13.4687 10.1733 12.8097C10.1733 12.3267 10.0568 11.9006 9.82386 11.5312C9.59091 11.1619 9.25852 10.8722 8.8267 10.6619C8.40057 10.4517 7.89205 10.3466 7.30114 10.3466H4.20739V14.983ZM4.20739 7.84943H6.94318C7.44886 7.84943 7.89773 7.76136 8.28977 7.58523C8.6875 7.40341 9 7.14773 9.22727 6.81818C9.46023 6.48864 9.5767 6.09375 9.5767 5.63352C9.5767 5.00284 9.35227 4.49432 8.90341 4.10795C8.46023 3.72159 7.82955 3.52841 7.01136 3.52841H4.20739V7.84943ZM23.3729 0.545454H27.0206V12.7159C27.0206 13.8409 26.7678 14.8182 26.2621 15.6477C25.7621 16.4773 25.0661 17.1165 24.174 17.5653C23.282 18.0142 22.245 18.2386 21.0632 18.2386C20.0121 18.2386 19.0575 18.054 18.1996 17.6847C17.3473 17.3097 16.6712 16.7415 16.1712 15.9801C15.6712 15.2131 15.424 14.25 15.4297 13.0909H19.103C19.1143 13.5511 19.2081 13.946 19.3842 14.2756C19.5661 14.5994 19.8132 14.8494 20.1257 15.0256C20.4439 15.196 20.8189 15.2812 21.2507 15.2812C21.7053 15.2812 22.0888 15.1847 22.4013 14.9915C22.7195 14.7926 22.9609 14.5028 23.1257 14.1222C23.2905 13.7415 23.3729 13.2727 23.3729 12.7159V0.545454ZM46.1115 9.27273C46.1115 11.1761 45.7507 12.7955 45.0291 14.1307C44.3132 15.4659 43.3359 16.4858 42.0973 17.1903C40.8643 17.8892 39.478 18.2386 37.9382 18.2386C36.3871 18.2386 34.995 17.8864 33.7621 17.1818C32.5291 16.4773 31.5547 15.4574 30.8388 14.1222C30.1229 12.7869 29.7649 11.1705 29.7649 9.27273C29.7649 7.36932 30.1229 5.75 30.8388 4.41477C31.5547 3.07955 32.5291 2.0625 33.7621 1.36364C34.995 0.659091 36.3871 0.306818 37.9382 0.306818C39.478 0.306818 40.8643 0.659091 42.0973 1.36364C43.3359 2.0625 44.3132 3.07955 45.0291 4.41477C45.7507 5.75 46.1115 7.36932 46.1115 9.27273ZM42.37 9.27273C42.37 8.03977 42.1854 7 41.8161 6.15341C41.4524 5.30682 40.9382 4.66477 40.2734 4.22727C39.6087 3.78977 38.8303 3.57102 37.9382 3.57102C37.0462 3.57102 36.2678 3.78977 35.603 4.22727C34.9382 4.66477 34.4212 5.30682 34.0518 6.15341C33.6882 7 33.5064 8.03977 33.5064 9.27273C33.5064 10.5057 33.6882 11.5455 34.0518 12.392C34.4212 13.2386 34.9382 13.8807 35.603 14.3182C36.2678 14.7557 37.0462 14.9744 37.9382 14.9744C38.8303 14.9744 39.6087 14.7557 40.2734 14.3182C40.9382 13.8807 41.4524 13.2386 41.8161 12.392C42.1854 11.5455 42.37 10.5057 42.37 9.27273ZM48.8452 18V0.545454H55.7315C57.0497 0.545454 58.1747 0.78125 59.1065 1.25284C60.044 1.71875 60.7571 2.38068 61.2457 3.23864C61.7401 4.09091 61.9872 5.09375 61.9872 6.24716C61.9872 7.40625 61.7372 8.40341 61.2372 9.23864C60.7372 10.0682 60.0128 10.7045 59.0639 11.1477C58.1207 11.5909 56.9787 11.8125 55.6378 11.8125H51.027V8.84659H55.0412C55.7457 8.84659 56.331 8.75 56.7969 8.55682C57.2628 8.36364 57.6094 8.07386 57.8366 7.6875C58.0696 7.30114 58.1861 6.82102 58.1861 6.24716C58.1861 5.66761 58.0696 5.17898 57.8366 4.78125C57.6094 4.38352 57.2599 4.08239 56.7884 3.87784C56.3224 3.66761 55.7344 3.5625 55.0241 3.5625H52.5355V18H48.8452ZM58.2713 10.0568L62.6094 18H58.5355L54.2912 10.0568H58.2713ZM64.5952 18V0.545454H68.2855V14.9574H75.7685V18H64.5952ZM81.6662 18H77.7116L83.7372 0.545454H88.4929L94.5099 18H90.5554L86.1832 4.53409H86.0469L81.6662 18ZM81.419 11.1392H90.7599V14.0199H81.419V11.1392ZM96.6108 0.545454H101.162L105.969 12.2727H106.173L110.98 0.545454H115.531V18H111.952V6.6392H111.807L107.29 17.9148H104.852L100.335 6.59659H100.19V18H96.6108V0.545454Z" fill="white"/>
</svg>
