<svg width="97" height="16" viewBox="0 0 97 16" fill="none" xmlns="http://www.w3.org/2000/svg">
<path d="M0.264205 15V0.454545H6.08807C7.15814 0.454545 8.05066 0.613163 8.76562 0.930398C9.48059 1.24763 10.018 1.68797 10.3778 2.25142C10.7377 2.81013 10.9176 3.45407 10.9176 4.18324C10.9176 4.75142 10.804 5.25095 10.5767 5.68182C10.3494 6.10795 10.0369 6.45833 9.6392 6.73295C9.24621 7.00284 8.7964 7.1946 8.28977 7.30824V7.45028C8.84375 7.47396 9.36222 7.63021 9.84517 7.91903C10.3329 8.20786 10.7282 8.61269 11.0312 9.13352C11.3343 9.64962 11.4858 10.2652 11.4858 10.9801C11.4858 11.7519 11.294 12.4408 10.9105 13.0469C10.5317 13.6482 9.97064 14.1241 9.22727 14.4744C8.4839 14.8248 7.56771 15 6.47869 15H0.264205ZM3.33949 12.4858H5.84659C6.7036 12.4858 7.3286 12.3224 7.72159 11.9957C8.11458 11.6643 8.31108 11.224 8.31108 10.6747C8.31108 10.2723 8.21402 9.91714 8.01989 9.60938C7.82576 9.30161 7.54877 9.06013 7.18892 8.88494C6.83381 8.70975 6.41004 8.62216 5.91761 8.62216H3.33949V12.4858ZM3.33949 6.54119H5.61932C6.04072 6.54119 6.41477 6.4678 6.74148 6.32102C7.07292 6.16951 7.33333 5.95644 7.52273 5.68182C7.71686 5.4072 7.81392 5.07812 7.81392 4.6946C7.81392 4.16903 7.62689 3.74527 7.25284 3.4233C6.88352 3.10133 6.35795 2.94034 5.67614 2.94034H3.33949V6.54119ZM19.3107 0.454545H22.3505V10.5966C22.3505 11.5341 22.1398 12.3485 21.7184 13.0398C21.3017 13.7311 20.7217 14.2637 19.9783 14.6378C19.235 15.0118 18.3709 15.1989 17.386 15.1989C16.5101 15.1989 15.7146 15.045 14.9996 14.7372C14.2894 14.4247 13.726 13.9512 13.3093 13.3168C12.8926 12.6776 12.6867 11.875 12.6914 10.9091H15.7525C15.762 11.2926 15.8401 11.6217 15.9869 11.8963C16.1384 12.1662 16.3443 12.3745 16.6048 12.5213C16.8699 12.6634 17.1824 12.7344 17.5423 12.7344C17.921 12.7344 18.2406 12.6539 18.5011 12.4929C18.7662 12.3272 18.9674 12.0857 19.1048 11.7685C19.2421 11.4512 19.3107 11.0606 19.3107 10.5966V0.454545ZM38.2596 7.72727C38.2596 9.31345 37.9589 10.6629 37.3576 11.7756C36.761 12.8883 35.9466 13.7382 34.9144 14.3253C33.887 14.9077 32.7317 15.1989 31.4485 15.1989C30.1559 15.1989 28.9959 14.9053 27.9684 14.3182C26.9409 13.7311 26.1289 12.8812 25.5323 11.7685C24.9357 10.6558 24.6374 9.30871 24.6374 7.72727C24.6374 6.1411 24.9357 4.79167 25.5323 3.67898C26.1289 2.56629 26.9409 1.71875 27.9684 1.13636C28.9959 0.549242 30.1559 0.255681 31.4485 0.255681C32.7317 0.255681 33.887 0.549242 34.9144 1.13636C35.9466 1.71875 36.761 2.56629 37.3576 3.67898C37.9589 4.79167 38.2596 6.1411 38.2596 7.72727ZM35.1417 7.72727C35.1417 6.69981 34.9878 5.83333 34.68 5.12784C34.377 4.42235 33.9485 3.88731 33.3945 3.52273C32.8406 3.15814 32.1919 2.97585 31.4485 2.97585C30.7051 2.97585 30.0565 3.15814 29.5025 3.52273C28.9485 3.88731 28.5176 4.42235 28.2099 5.12784C27.9068 5.83333 27.7553 6.69981 27.7553 7.72727C27.7553 8.75473 27.9068 9.62121 28.2099 10.3267C28.5176 11.0322 28.9485 11.5672 29.5025 11.9318C30.0565 12.2964 30.7051 12.4787 31.4485 12.4787C32.1919 12.4787 32.8406 12.2964 33.3945 11.9318C33.9485 11.5672 34.377 11.0322 34.68 10.3267C34.9878 9.62121 35.1417 8.75473 35.1417 7.72727ZM40.5376 15V0.454545H46.2763C47.3748 0.454545 48.3123 0.651041 49.0888 1.04403C49.87 1.43229 50.4643 1.9839 50.8714 2.69886C51.2834 3.40909 51.4893 4.24479 51.4893 5.20597C51.4893 6.17187 51.281 7.00284 50.8643 7.69886C50.4477 8.39015 49.844 8.92045 49.0533 9.28977C48.2673 9.65909 47.3156 9.84375 46.1982 9.84375H42.3558V7.37216H45.701C46.2881 7.37216 46.7758 7.29167 47.1641 7.13068C47.5523 6.9697 47.8411 6.72822 48.0305 6.40625C48.2247 6.08428 48.3217 5.68419 48.3217 5.20597C48.3217 4.72301 48.2247 4.31581 48.0305 3.98438C47.8411 3.65294 47.55 3.40199 47.157 3.23153C46.7687 3.05634 46.2786 2.96875 45.6868 2.96875H43.6129V15H40.5376ZM48.3928 8.38068L52.0078 15H48.6129L45.076 8.38068H48.3928ZM53.6626 15V0.454545H56.7379V12.4645H62.9737V15H53.6626ZM67.8885 15H64.593L69.6143 0.454545H73.5774L78.5916 15H75.2962L71.6527 3.77841H71.5391L67.8885 15ZM67.6825 9.28267H75.4666V11.6832H67.6825V9.28267ZM80.3423 0.454545H84.1349L88.1406 10.2273H88.3111L92.3168 0.454545H96.1094V15H93.1264V5.53267H93.0057L89.2415 14.929H87.2102L83.446 5.49716H83.3253V15H80.3423V0.454545Z" fill="white"/>
</svg>
