<svg width="173" height="28" viewBox="0 0 173 28" fill="none" xmlns="http://www.w3.org/2000/svg">
<path d="M0.275568 27V0.818181H10.7585C12.6847 0.818181 14.2912 1.10369 15.5781 1.67472C16.8651 2.24574 17.8324 3.03835 18.4801 4.05256C19.1278 5.05824 19.4517 6.21733 19.4517 7.52983C19.4517 8.55256 19.2472 9.4517 18.8381 10.2273C18.429 10.9943 17.8665 11.625 17.1506 12.1193C16.4432 12.6051 15.6335 12.9503 14.7216 13.1548V13.4105C15.7188 13.4531 16.652 13.7344 17.5213 14.2543C18.3991 14.7741 19.1108 15.5028 19.6562 16.4403C20.2017 17.3693 20.4744 18.4773 20.4744 19.7642C20.4744 21.1534 20.1293 22.3935 19.4389 23.4844C18.7571 24.5668 17.7472 25.4233 16.4091 26.054C15.071 26.6847 13.4219 27 11.4616 27H0.275568ZM5.81108 22.4744H10.3239C11.8665 22.4744 12.9915 22.1804 13.6989 21.5923C14.4063 20.9957 14.7599 20.2031 14.7599 19.2145C14.7599 18.4901 14.5852 17.8509 14.2358 17.2969C13.8864 16.7429 13.3878 16.3082 12.7401 15.9929C12.1009 15.6776 11.3381 15.5199 10.4517 15.5199H5.81108V22.4744ZM5.81108 11.7741H9.91477C10.6733 11.7741 11.3466 11.642 11.9347 11.3778C12.5313 11.1051 13 10.7216 13.3409 10.2273C13.6903 9.73295 13.8651 9.14062 13.8651 8.45028C13.8651 7.50426 13.5284 6.74148 12.8551 6.16193C12.1903 5.58239 11.2443 5.29261 10.017 5.29261H5.81108V11.7741ZM34.5593 0.818181H40.0309V19.0739C40.0309 20.7614 39.6516 22.2273 38.8931 23.4716C38.1431 24.7159 37.0991 25.6747 35.761 26.348C34.4229 27.0213 32.8675 27.358 31.0948 27.358C29.5181 27.358 28.0863 27.081 26.7994 26.527C25.521 25.9645 24.5067 25.1122 23.7567 23.9702C23.0067 22.8196 22.636 21.375 22.6445 19.6364H28.1545C28.1715 20.3267 28.3121 20.919 28.5763 21.4134C28.8491 21.8991 29.2198 22.2741 29.6886 22.5384C30.1658 22.794 30.7283 22.9219 31.3761 22.9219C32.0579 22.9219 32.6332 22.777 33.1019 22.4872C33.5792 22.1889 33.9414 21.7543 34.1886 21.1832C34.4357 20.6122 34.5593 19.9091 34.5593 19.0739V0.818181ZM68.6673 13.9091C68.6673 16.7642 68.1261 19.1932 67.0437 21.196C65.9698 23.1989 64.5039 24.7287 62.646 25.7855C60.7965 26.8338 58.717 27.358 56.4073 27.358C54.0806 27.358 51.9925 26.8295 50.1431 25.7727C48.2937 24.7159 46.832 23.1861 45.7582 21.1832C44.6843 19.1804 44.1474 16.7557 44.1474 13.9091C44.1474 11.054 44.6843 8.625 45.7582 6.62216C46.832 4.61932 48.2937 3.09375 50.1431 2.04545C51.9925 0.988636 54.0806 0.460226 56.4073 0.460226C58.717 0.460226 60.7965 0.988636 62.646 2.04545C64.5039 3.09375 65.9698 4.61932 67.0437 6.62216C68.1261 8.625 68.6673 11.054 68.6673 13.9091ZM63.055 13.9091C63.055 12.0597 62.7781 10.5 62.2241 9.23011C61.6786 7.96023 60.9073 6.99716 59.9102 6.34091C58.913 5.68466 57.7454 5.35653 56.4073 5.35653C55.0692 5.35653 53.9016 5.68466 52.9045 6.34091C51.9073 6.99716 51.1317 7.96023 50.5778 9.23011C50.0323 10.5 49.7596 12.0597 49.7596 13.9091C49.7596 15.7585 50.0323 17.3182 50.5778 18.5881C51.1317 19.858 51.9073 20.821 52.9045 21.4773C53.9016 22.1335 55.0692 22.4616 56.4073 22.4616C57.7454 22.4616 58.913 22.1335 59.9102 21.4773C60.9073 20.821 61.6786 19.858 62.2241 18.5881C62.7781 17.3182 63.055 15.7585 63.055 13.9091ZM72.7678 27V0.818181H83.0973C85.0746 0.818181 86.7621 1.17187 88.1598 1.87926C89.5661 2.57812 90.6357 3.57102 91.3686 4.85795C92.1101 6.13636 92.4808 7.64062 92.4808 9.37074C92.4808 11.1094 92.1058 12.6051 91.3558 13.858C90.6058 15.1023 89.5192 16.0568 88.0959 16.7216C86.6811 17.3864 84.968 17.7188 82.9567 17.7188H76.0405V13.2699H82.0618C83.1186 13.2699 83.9964 13.125 84.6953 12.8352C85.3942 12.5455 85.9141 12.1108 86.255 11.5312C86.6044 10.9517 86.7791 10.2315 86.7791 9.37074C86.7791 8.50142 86.6044 7.76847 86.255 7.17188C85.9141 6.57528 85.3899 6.12358 84.6825 5.81676C83.9837 5.50142 83.1016 5.34375 82.0362 5.34375H78.3033V27H72.7678ZM86.907 15.0852L93.4141 27H87.3033L80.9368 15.0852H86.907ZM96.3928 27V0.818181H101.928V22.4361H113.153V27H96.3928ZM121.999 27H116.067L125.106 0.818181H132.239L141.265 27H135.333L128.775 6.80114H128.57L121.999 27ZM121.629 16.7088H135.64V21.0298H121.629V16.7088ZM144.416 0.818181H151.243L158.453 18.4091H158.76L165.97 0.818181H172.797V27H167.428V9.95881H167.21L160.435 26.8722H156.778L150.003 9.89489H149.786V27H144.416V0.818181Z" fill="white"/>
</svg>
