<svg width="87" height="15" viewBox="0 0 87 15" fill="none" xmlns="http://www.w3.org/2000/svg">
<path d="M0.137784 14V0.909091H5.37926C6.34233 0.909091 7.1456 1.05185 7.78906 1.33736C8.43253 1.62287 8.91619 2.01918 9.24006 2.52628C9.56392 3.02912 9.72585 3.60866 9.72585 4.26491C9.72585 4.77628 9.62358 5.22585 9.41903 5.61364C9.21449 5.99716 8.93324 6.3125 8.57528 6.55966C8.22159 6.80256 7.81676 6.97514 7.3608 7.07741V7.20526C7.85938 7.22656 8.32599 7.36719 8.76065 7.62713C9.19957 7.88707 9.5554 8.25142 9.82812 8.72017C10.1009 9.18466 10.2372 9.73864 10.2372 10.3821C10.2372 11.0767 10.0646 11.6967 9.71946 12.2422C9.37855 12.7834 8.87358 13.2116 8.20455 13.527C7.53551 13.8423 6.71094 14 5.73082 14H0.137784ZM2.90554 11.7372H5.16193C5.93324 11.7372 6.49574 11.5902 6.84943 11.2962C7.20313 10.9979 7.37997 10.6016 7.37997 10.1072C7.37997 9.74503 7.29261 9.42543 7.1179 9.14844C6.94318 8.87145 6.69389 8.65412 6.37003 8.49645C6.05043 8.33878 5.66903 8.25994 5.22585 8.25994H2.90554V11.7372ZM2.90554 6.38707H4.95739C5.33665 6.38707 5.6733 6.32102 5.96733 6.18892C6.26563 6.05256 6.5 5.8608 6.67045 5.61364C6.84517 5.36648 6.93253 5.07031 6.93253 4.72514C6.93253 4.25213 6.7642 3.87074 6.42756 3.58097C6.09517 3.29119 5.62216 3.14631 5.00852 3.14631H2.90554V6.38707ZM17.2797 0.909091H20.0154V10.0369C20.0154 10.8807 19.8258 11.6136 19.4466 12.2358C19.0716 12.858 18.5495 13.3374 17.8805 13.674C17.2115 14.0107 16.4338 14.179 15.5474 14.179C14.7591 14.179 14.0431 14.0405 13.3997 13.7635C12.7605 13.4822 12.2534 13.0561 11.8784 12.4851C11.5034 11.9098 11.318 11.1875 11.3223 10.3182H14.0772C14.0858 10.6634 14.1561 10.9595 14.2882 11.2067C14.4245 11.4496 14.6099 11.6371 14.8443 11.7692C15.0829 11.897 15.3642 11.9609 15.688 11.9609C16.0289 11.9609 16.3166 11.8885 16.551 11.7436C16.7896 11.5945 16.9707 11.3771 17.0943 11.0916C17.2179 10.8061 17.2797 10.4545 17.2797 10.0369V0.909091ZM34.3336 7.45455C34.3336 8.8821 34.063 10.0966 33.5218 11.098C32.9849 12.0994 32.252 12.8643 31.323 13.3928C30.3983 13.9169 29.3585 14.179 28.2037 14.179C27.0403 14.179 25.9963 13.9148 25.0716 13.3864C24.1468 12.858 23.416 12.093 22.8791 11.0916C22.3422 10.0902 22.0737 8.87784 22.0737 7.45455C22.0737 6.02699 22.3422 4.8125 22.8791 3.81108C23.416 2.80966 24.1468 2.04687 25.0716 1.52273C25.9963 0.994318 27.0403 0.730113 28.2037 0.730113C29.3585 0.730113 30.3983 0.994318 31.323 1.52273C32.252 2.04687 32.9849 2.80966 33.5218 3.81108C34.063 4.8125 34.3336 6.02699 34.3336 7.45455ZM31.5275 7.45455C31.5275 6.52983 31.389 5.75 31.112 5.11506C30.8393 4.48011 30.4537 3.99858 29.9551 3.67045C29.4565 3.34233 28.8727 3.17827 28.2037 3.17827C27.5346 3.17827 26.9508 3.34233 26.4522 3.67045C25.9537 3.99858 25.5659 4.48011 25.2889 5.11506C25.0162 5.75 24.8798 6.52983 24.8798 7.45455C24.8798 8.37926 25.0162 9.15909 25.2889 9.79403C25.5659 10.429 25.9537 10.9105 26.4522 11.2386C26.9508 11.5668 27.5346 11.7308 28.2037 11.7308C28.8727 11.7308 29.4565 11.5668 29.9551 11.2386C30.4537 10.9105 30.8393 10.429 31.112 9.79403C31.389 9.15909 31.5275 8.37926 31.5275 7.45455ZM36.3839 14V0.909091H41.5487C42.5373 0.909091 43.381 1.08594 44.0799 1.43963C44.783 1.78906 45.3178 2.28551 45.6843 2.92898C46.055 3.56818 46.2404 4.32031 46.2404 5.18537C46.2404 6.05469 46.0529 6.80256 45.6779 7.42898C45.3029 8.05114 44.7596 8.52841 44.0479 8.8608C43.3406 9.19318 42.484 9.35938 41.4783 9.35938H38.0202V7.13494H41.0309C41.5593 7.13494 41.9982 7.0625 42.3477 6.91761C42.6971 6.77273 42.957 6.5554 43.1275 6.26562C43.3022 5.97585 43.3896 5.61577 43.3896 5.18537C43.3896 4.75071 43.3022 4.38423 43.1275 4.08594C42.957 3.78764 42.695 3.56179 42.3413 3.40838C41.9918 3.25071 41.5508 3.17188 41.0181 3.17188H39.1516V14H36.3839ZM43.4535 8.04261L46.707 14H43.6516L40.4684 8.04261H43.4535ZM48.1964 14V0.909091H50.9641V11.718H56.5764V14H48.1964ZM60.9996 14H58.0337L62.5529 0.909091H66.1197L70.6325 14H67.6665L64.3874 3.90057H64.2852L60.9996 14ZM60.8143 8.8544H67.82V11.0149H60.8143V8.8544ZM72.2081 0.909091H75.6214L79.2266 9.70455H79.38L82.9851 0.909091H86.3984V14H83.7138V5.4794H83.6051L80.2173 13.9361H78.3892L75.0014 5.44744H74.8928V14H72.2081V0.909091Z" fill="white"/>
</svg>
