<svg width="346" height="55" viewBox="0 0 346 55" fill="none" xmlns="http://www.w3.org/2000/svg">
<path d="M0.551136 54V1.63636H21.517C25.3693 1.63636 28.5824 2.20739 31.1562 3.34943C33.7301 4.49148 35.6648 6.0767 36.9602 8.10511C38.2557 10.1165 38.9034 12.4347 38.9034 15.0597C38.9034 17.1051 38.4943 18.9034 37.6761 20.4545C36.858 21.9886 35.733 23.25 34.3011 24.2386C32.8864 25.2102 31.267 25.9006 29.4432 26.3097V26.821C31.4375 26.9062 33.304 27.4687 35.0426 28.5085C36.7983 29.5483 38.2216 31.0057 39.3125 32.8807C40.4034 34.7386 40.9489 36.9545 40.9489 39.5284C40.9489 42.3068 40.2585 44.7869 38.8778 46.9688C37.5142 49.1335 35.4943 50.8466 32.8182 52.108C30.142 53.3693 26.8438 54 22.9233 54H0.551136ZM11.6222 44.9489H20.6477C23.733 44.9489 25.983 44.3608 27.3977 43.1847C28.8125 41.9915 29.5199 40.4062 29.5199 38.429C29.5199 36.9801 29.1705 35.7017 28.4716 34.5938C27.7727 33.4858 26.7756 32.6165 25.4801 31.9858C24.2017 31.3551 22.6761 31.0398 20.9034 31.0398H11.6222V44.9489ZM11.6222 23.5483H19.8295C21.3466 23.5483 22.6932 23.2841 23.8693 22.7557C25.0625 22.2102 26 21.4432 26.6818 20.4545C27.3807 19.4659 27.7301 18.2812 27.7301 16.9006C27.7301 15.0085 27.0568 13.483 25.7102 12.3239C24.3807 11.1648 22.4886 10.5852 20.0341 10.5852H11.6222V23.5483ZM69.1186 1.63636H80.0618V38.1477C80.0618 41.5227 79.3033 44.4545 77.7862 46.9432C76.2862 49.4318 74.1982 51.3494 71.522 52.696C68.8459 54.0426 65.7351 54.7159 62.1896 54.7159C59.0362 54.7159 56.1726 54.1619 53.5987 53.054C51.0419 51.929 49.0135 50.2244 47.5135 47.9403C46.0135 45.6392 45.272 42.75 45.2891 39.2727H56.3089C56.343 40.6534 56.6243 41.8381 57.1527 42.8267C57.6982 43.7983 58.4396 44.5483 59.3771 45.0767C60.3317 45.5881 61.4567 45.8438 62.7521 45.8438C64.1158 45.8438 65.2663 45.554 66.2038 44.9744C67.1584 44.3778 67.8828 43.5085 68.3771 42.3665C68.8714 41.2244 69.1186 39.8182 69.1186 38.1477V1.63636ZM137.335 27.8182C137.335 33.5284 136.252 38.3864 134.087 42.392C131.94 46.3977 129.008 49.4574 125.292 51.571C121.593 53.6676 117.434 54.7159 112.815 54.7159C108.161 54.7159 103.985 53.6591 100.286 51.5455C96.5874 49.4318 93.6641 46.3722 91.5163 42.3665C89.3686 38.3608 88.2947 33.5114 88.2947 27.8182C88.2947 22.108 89.3686 17.25 91.5163 13.2443C93.6641 9.23864 96.5874 6.1875 100.286 4.09091C103.985 1.97727 108.161 0.920453 112.815 0.920453C117.434 0.920453 121.593 1.97727 125.292 4.09091C129.008 6.1875 131.94 9.23864 134.087 13.2443C136.252 17.25 137.335 22.108 137.335 27.8182ZM126.11 27.8182C126.11 24.1193 125.556 21 124.448 18.4602C123.357 15.9205 121.815 13.9943 119.82 12.6818C117.826 11.3693 115.491 10.7131 112.815 10.7131C110.138 10.7131 107.803 11.3693 105.809 12.6818C103.815 13.9943 102.263 15.9205 101.156 18.4602C100.065 21 99.5192 24.1193 99.5192 27.8182C99.5192 31.517 100.065 34.6364 101.156 37.1761C102.263 39.7159 103.815 41.642 105.809 42.9545C107.803 44.267 110.138 44.9233 112.815 44.9233C115.491 44.9233 117.826 44.267 119.82 42.9545C121.815 41.642 123.357 39.7159 124.448 37.1761C125.556 34.6364 126.11 31.517 126.11 27.8182ZM145.536 54V1.63636H166.195C170.149 1.63636 173.524 2.34375 176.32 3.75852C179.132 5.15625 181.271 7.14204 182.737 9.71591C184.22 12.2727 184.962 15.2812 184.962 18.7415C184.962 22.2187 184.212 25.2102 182.712 27.7159C181.212 30.2045 179.038 32.1136 176.192 33.4432C173.362 34.7727 169.936 35.4375 165.913 35.4375H152.081V26.5398H164.124C166.237 26.5398 167.993 26.25 169.391 25.6705C170.788 25.0909 171.828 24.2216 172.51 23.0625C173.209 21.9034 173.558 20.4631 173.558 18.7415C173.558 17.0028 173.209 15.5369 172.51 14.3438C171.828 13.1506 170.78 12.2472 169.365 11.6335C167.967 11.0028 166.203 10.6875 164.072 10.6875H156.607V54H145.536ZM173.814 30.1705L186.828 54H174.607L161.874 30.1705H173.814ZM192.786 54V1.63636H203.857V44.8722H226.305V54H192.786ZM243.999 54H232.135L250.212 1.63636H264.479L282.53 54H270.666L257.55 13.6023H257.141L243.999 54ZM243.257 33.4176H271.28V42.0597H243.257V33.4176ZM288.832 1.63636H302.486L316.906 36.8182H317.52L331.94 1.63636H345.594V54H334.855V19.9176H334.42L320.869 53.7443H313.557L300.006 19.7898H299.571V54H288.832V1.63636Z" fill="white"/>
</svg>
